<svg width="389.9199951171875px" height="128.03500976562498px" xmlns="http://www.w3.org/2000/svg" viewBox="55.040002441406244 10.982495117187511 389.9199951171875 128.03500976562498" style="background: rgba(0, 0, 0, 0);" preserveAspectRatio="xMidYMid"><defs><filter id="editing-jagged" x="-100%" y="-100%" width="300%" height="300%"><feTurbulence result="turb" baseFrequency="0.1" numOctaves="1" seed="1"></feTurbulence><feDisplacementMap in="SourceGraphic" in2="turb" scale="10"></feDisplacementMap></filter></defs><g filter="url(#editing-jagged)"><g transform="translate(115.0250084400177, 98.03999900817871)"><path d="M49.28-44.80L49.28-44.80Q49.98-44.80 50.50-44.29L50.50-44.29L50.50-44.29Q51.01-43.78 51.01-43.07L51.01-43.07L51.01-32.77L51.01-32.77Q51.01-32.06 50.50-31.55L50.50-31.55L50.50-31.55Q49.98-31.04 49.28-31.04L49.28-31.04L35.52-31.04L35.52-1.73L35.52-1.73Q35.52-1.02 35.01-0.51L35.01-0.51L35.01-0.51Q34.50 0 33.79 0L33.79 0L20.61 0L20.61 0Q19.90 0 19.39-0.51L19.39-0.51L19.39-0.51Q18.88-1.02 18.88-1.73L18.88-1.73L18.88-31.04L5.12-31.04L5.12-31.04Q4.42-31.04 3.90-31.55L3.90-31.55L3.90-31.55Q3.39-32.06 3.39-32.77L3.39-32.77L3.39-43.07L3.39-43.07Q3.39-43.78 3.90-44.29L3.90-44.29L3.90-44.29Q4.42-44.80 5.12-44.80L5.12-44.80L49.28-44.80ZM81.60 0.64L81.60 0.64Q70.85 0.64 64.54-4.03L64.54-4.03L64.54-4.03Q58.24-8.70 58.24-18.62L58.24-18.62L58.24-43.07L58.24-43.07Q58.24-43.78 58.75-44.29L58.75-44.29L58.75-44.29Q59.26-44.80 59.97-44.80L59.97-44.80L73.34-44.80L73.34-44.80Q74.05-44.80 74.56-44.29L74.56-44.29L74.56-44.29Q75.07-43.78 75.07-43.07L75.07-43.07L75.07-17.60L75.07-17.60Q75.07-14.98 76.83-13.57L76.83-13.57L76.83-13.57Q78.59-12.16 81.60-12.16L81.60-12.16L81.60-12.16Q84.61-12.16 86.37-13.57L86.37-13.57L86.37-13.57Q88.13-14.98 88.13-17.60L88.13-17.60L88.13-43.07L88.13-43.07Q88.13-43.78 88.64-44.29L88.64-44.29L88.64-44.29Q89.15-44.80 89.86-44.80L89.86-44.80L103.23-44.80L103.23-44.80Q103.94-44.80 104.45-44.29L104.45-44.29L104.45-44.29Q104.96-43.78 104.96-43.07L104.96-43.07L104.96-18.62L104.96-18.62Q104.96-8.70 98.66-4.03L98.66-4.03L98.66-4.03Q92.35 0.64 81.60 0.64L81.60 0.64ZM130.11-17.28L130.11-17.28Q130.11-14.66 131.87-13.25L131.87-13.25L131.87-13.25Q133.63-11.84 136.64-11.84L136.64-11.84L136.64-11.84Q139.33-11.84 140.61-12.74L140.61-12.74L140.61-12.74Q141.89-13.63 142.78-15.42L142.78-15.42L142.78-15.42Q143.62-17.09 145.02-17.09L145.02-17.09L158.85-17.09L158.85-17.09Q159.42-17.09 159.84-16.67L159.84-16.67L159.84-16.67Q160.26-16.26 160.26-15.68L160.26-15.68L160.26-15.68Q160.26-11.78 157.63-8.03L157.63-8.03L157.63-8.03Q155.01-4.29 149.66-1.82L149.66-1.82L149.66-1.82Q144.32 0.64 136.64 0.64L136.64 0.64L136.64 0.64Q129.79 0.64 124.45-1.44L124.45-1.44L124.45-1.44Q119.10-3.52 115.97-7.84L115.97-7.84L115.97-7.84Q112.83-12.16 112.83-18.62L112.83-18.62L112.83-26.18L112.83-26.18Q112.83-32.64 115.97-36.96L115.97-36.96L115.97-36.96Q119.10-41.28 124.45-43.36L124.45-43.36L124.45-43.36Q129.79-45.44 136.64-45.44L136.64-45.44L136.64-45.44Q144.32-45.44 149.66-42.98L149.66-42.98L149.66-42.98Q155.01-40.51 157.63-36.77L157.63-36.77L157.63-36.77Q160.26-33.02 160.26-29.12L160.26-29.12L160.26-29.12Q160.26-28.54 159.84-28.13L159.84-28.13L159.84-28.13Q159.42-27.71 158.85-27.71L158.85-27.71L145.02-27.71L145.02-27.71Q143.62-27.71 142.78-29.38L142.78-29.38L142.78-29.38Q141.89-31.17 140.61-32.06L140.61-32.06L140.61-32.06Q139.33-32.96 136.64-32.96L136.64-32.96L136.64-32.96Q133.63-32.96 131.87-31.55L131.87-31.55L131.87-31.55Q130.11-30.14 130.11-27.52L130.11-27.52L130.11-17.28ZM182.78-6.66L181.18-2.18L181.18-2.18Q180.35 0 178.30 0L178.30 0L166.21 0L166.21 0Q165.63 0 165.22-0.42L165.22-0.42L165.22-0.42Q164.80-0.83 164.80-1.41L164.80-1.41L164.86-1.79L178.82-42.69L178.82-42.69Q179.07-43.52 179.78-44.16L179.78-44.16L179.78-44.16Q180.48-44.80 181.70-44.80L181.70-44.80L199.49-44.80L199.49-44.80Q200.70-44.80 201.41-44.16L201.41-44.16L201.41-44.16Q202.11-43.52 202.37-42.69L202.37-42.69L216.32-1.79L216.38-1.41L216.38-1.41Q216.38-0.83 215.97-0.42L215.97-0.42L215.97-0.42Q215.55 0 214.98 0L214.98 0L202.88 0L202.88 0Q200.83 0 200-2.18L200-2.18L198.40-6.66L182.78-6.66ZM195.14-19.14L190.59-32.45L186.05-19.14L195.14-19.14ZM264.83-44.80L264.83-44.80Q265.54-44.80 266.05-44.29L266.05-44.29L266.05-44.29Q266.56-43.78 266.56-43.07L266.56-43.07L266.56-1.73L266.56-1.73Q266.56-1.02 266.05-0.51L266.05-0.51L266.05-0.51Q265.54 0 264.83 0L264.83 0L254.53 0L254.53 0Q252.99 0 251.97-1.34L251.97-1.34L238.02-19.14L238.02-1.73L238.02-1.73Q238.02-1.02 237.50-0.51L237.50-0.51L237.50-0.51Q236.99 0 236.29 0L236.29 0L224.38 0L224.38 0Q223.68 0 223.17-0.51L223.17-0.51L223.17-0.51Q222.66-1.02 222.66-1.73L222.66-1.73L222.66-43.07L222.66-43.07Q222.66-43.78 223.17-44.29L223.17-44.29L223.17-44.29Q223.68-44.80 224.38-44.80L224.38-44.80L234.75-44.80L234.75-44.80Q236.29-44.80 237.25-43.52L237.25-43.52L251.20-24.26L251.20-43.07L251.20-43.07Q251.20-43.78 251.71-44.29L251.71-44.29L251.71-44.29Q252.22-44.80 252.93-44.80L252.93-44.80L264.83-44.80Z" fill="#444"></path></g></g><style>text {
  font-size: 64px;
  font-family: Arial Black;
  dominant-baseline: central;
  text-anchor: middle;
}</style></svg>