<svg width="685.847509765625px" height="128.03500976562498px" xmlns="http://www.w3.org/2000/svg" viewBox="-92.92375488281249 10.982495117187511 685.847509765625 128.03500976562498" style="background: rgba(0, 0, 0, 0);" preserveAspectRatio="xMidYMid"><defs><filter id="editing-jagged" x="-100%" y="-100%" width="300%" height="300%"><feTurbulence result="turb" baseFrequency="0.1" numOctaves="1" seed="1"></feTurbulence><feDisplacementMap in="SourceGraphic" in2="turb" scale="18.5"></feDisplacementMap></filter></defs><g filter="url(#editing-jagged)"><g transform="translate(5.1999993324279785, 98.03999900817871)"><path d="M45.50-23.36L45.50-23.36Q48-22.59 49.79-20L49.79-20L49.79-20Q51.58-17.41 51.58-14.08L51.58-14.08L51.58-14.08Q51.58-6.98 46.98-3.49L46.98-3.49L46.98-3.49Q42.37 0 33.54 0L33.54 0L7.17 0L7.17 0Q6.46 0 5.95-0.51L5.95-0.51L5.95-0.51Q5.44-1.02 5.44-1.73L5.44-1.73L5.44-43.07L5.44-43.07Q5.44-43.78 5.95-44.29L5.95-44.29L5.95-44.29Q6.46-44.80 7.17-44.80L7.17-44.80L32.90-44.80L32.90-44.80Q41.98-44.80 46.30-41.50L46.30-41.50L46.30-41.50Q50.62-38.21 50.62-31.55L50.62-31.55L50.62-31.36L50.62-31.36Q50.62-28.29 48.96-26.11L48.96-26.11L48.96-26.11Q47.30-23.94 45.50-23.36L45.50-23.36ZM33.28-30.98L33.28-30.98Q33.28-32.13 32.61-32.96L32.61-32.96L32.61-32.96Q31.94-33.79 30.66-33.79L30.66-33.79L22.08-33.79L22.08-27.97L30.66-27.97L30.66-27.97Q31.94-27.97 32.61-28.90L32.61-28.90L32.61-28.90Q33.28-29.82 33.28-30.98L33.28-30.98ZM22.08-11.01L31.36-11.01L31.36-11.01Q32.83-11.01 33.57-12L33.57-12L33.57-12Q34.30-12.99 34.30-14.21L34.30-14.21L34.30-14.27L34.30-14.27Q34.30-15.49 33.50-16.38L33.50-16.38L33.50-16.38Q32.70-17.28 31.36-17.28L31.36-17.28L22.08-17.28L22.08-11.01ZM90.30-31.68L90.30-13.12L101.89-13.12L101.89-13.12Q102.59-13.12 103.10-12.61L103.10-12.61L103.10-12.61Q103.62-12.10 103.62-11.39L103.62-11.39L103.62-1.73L103.62-1.73Q103.62-1.02 103.10-0.51L103.10-0.51L103.10-0.51Q102.59 0 101.89 0L101.89 0L61.31 0L61.31 0Q60.61 0 60.10-0.51L60.10-0.51L60.10-0.51Q59.58-1.02 59.58-1.73L59.58-1.73L59.58-11.39L59.58-11.39Q59.58-12.10 60.10-12.61L60.10-12.61L60.10-12.61Q60.61-13.12 61.31-13.12L61.31-13.12L73.02-13.12L73.02-31.68L61.31-31.68L61.31-31.68Q60.61-31.68 60.10-32.19L60.10-32.19L60.10-32.19Q59.58-32.70 59.58-33.41L59.58-33.41L59.58-43.07L59.58-43.07Q59.58-43.78 60.10-44.29L60.10-44.29L60.10-44.29Q60.61-44.80 61.31-44.80L61.31-44.80L101.89-44.80L101.89-44.80Q102.59-44.80 103.10-44.29L103.10-44.29L103.10-44.29Q103.62-43.78 103.62-43.07L103.62-43.07L103.62-33.41L103.62-33.41Q103.62-32.70 103.10-32.19L103.10-32.19L103.10-32.19Q102.59-31.68 101.89-31.68L101.89-31.68L90.30-31.68ZM159.04-27.01L159.04-27.01Q159.74-27.01 160.26-26.50L160.26-26.50L160.26-26.50Q160.77-25.98 160.77-25.28L160.77-25.28L160.77-18.50L160.77-18.50Q160.77-8.77 154.14-4.06L154.14-4.06L154.14-4.06Q147.52 0.64 136.64 0.64L136.64 0.64L136.64 0.64Q125.76 0.64 119.14-4.06L119.14-4.06L119.14-4.06Q112.51-8.77 112.51-18.62L112.51-18.62L112.51-26.18L112.51-26.18Q112.51-32.70 115.71-37.02L115.71-37.02L115.71-37.02Q118.91-41.34 124.35-43.39L124.35-43.39L124.35-43.39Q129.79-45.44 136.64-45.44L136.64-45.44L136.64-45.44Q144.83-45.44 150.14-42.75L150.14-42.75L150.14-42.75Q155.46-40.06 157.86-36.67L157.86-36.67L157.86-36.67Q160.26-33.28 160.26-31.17L160.26-31.17L160.26-31.17Q160.26-30.59 159.84-30.18L159.84-30.18L159.84-30.18Q159.42-29.76 158.85-29.76L158.85-29.76L144.38-29.76L144.38-29.76Q143.10-29.76 142.53-30.46L142.53-30.46L142.53-30.46Q140.54-32.96 136.64-32.96L136.64-32.96L136.64-32.96Q133.70-32.96 131.74-31.62L131.74-31.62L131.74-31.62Q129.79-30.27 129.79-28.16L129.79-28.16L129.79-17.28L129.79-17.28Q129.79-14.72 131.71-13.28L131.71-13.28L131.71-13.28Q133.63-11.84 136.64-11.84L136.64-11.84L136.64-11.84Q140.61-11.84 142.50-13.22L142.50-13.22L142.50-13.22Q144.38-14.59 144.45-16.45L144.45-16.45L140.48-16.45L140.48-16.45Q139.78-16.45 139.26-16.96L139.26-16.96L139.26-16.96Q138.75-17.47 138.75-18.18L138.75-18.18L138.75-25.28L138.75-25.28Q138.75-25.98 139.26-26.50L139.26-26.50L139.26-26.50Q139.78-27.01 140.48-27.01L140.48-27.01L159.04-27.01ZM266.88-44.80L266.88-44.80Q267.58-44.80 268.10-44.29L268.10-44.29L268.10-44.29Q268.61-43.78 268.61-43.07L268.61-43.07L268.61-32.77L268.61-32.77Q268.61-32.06 268.10-31.55L268.10-31.55L268.10-31.55Q267.58-31.04 266.88-31.04L266.88-31.04L253.12-31.04L253.12-1.73L253.12-1.73Q253.12-1.02 252.61-0.51L252.61-0.51L252.61-0.51Q252.10 0 251.39 0L251.39 0L238.21 0L238.21 0Q237.50 0 236.99-0.51L236.99-0.51L236.99-0.51Q236.48-1.02 236.48-1.73L236.48-1.73L236.48-31.04L222.72-31.04L222.72-31.04Q222.02-31.04 221.50-31.55L221.50-31.55L221.50-31.55Q220.99-32.06 220.99-32.77L220.99-32.77L220.99-43.07L220.99-43.07Q220.99-43.78 221.50-44.29L221.50-44.29L221.50-44.29Q222.02-44.80 222.72-44.80L222.72-44.80L266.88-44.80ZM299.20 0.64L299.20 0.64Q288.45 0.64 282.14-4.03L282.14-4.03L282.14-4.03Q275.84-8.70 275.84-18.62L275.84-18.62L275.84-43.07L275.84-43.07Q275.84-43.78 276.35-44.29L276.35-44.29L276.35-44.29Q276.86-44.80 277.57-44.80L277.57-44.80L290.94-44.80L290.94-44.80Q291.65-44.80 292.16-44.29L292.16-44.29L292.16-44.29Q292.67-43.78 292.67-43.07L292.67-43.07L292.67-17.60L292.67-17.60Q292.67-14.98 294.43-13.57L294.43-13.57L294.43-13.57Q296.19-12.16 299.20-12.16L299.20-12.16L299.20-12.16Q302.21-12.16 303.97-13.57L303.97-13.57L303.97-13.57Q305.73-14.98 305.73-17.60L305.73-17.60L305.73-43.07L305.73-43.07Q305.73-43.78 306.24-44.29L306.24-44.29L306.24-44.29Q306.75-44.80 307.46-44.80L307.46-44.80L320.83-44.80L320.83-44.80Q321.54-44.80 322.05-44.29L322.05-44.29L322.05-44.29Q322.56-43.78 322.56-43.07L322.56-43.07L322.56-18.62L322.56-18.62Q322.56-8.70 316.26-4.03L316.26-4.03L316.26-4.03Q309.95 0.64 299.20 0.64L299.20 0.64ZM347.71-17.28L347.71-17.28Q347.71-14.66 349.47-13.25L349.47-13.25L349.47-13.25Q351.23-11.84 354.24-11.84L354.24-11.84L354.24-11.84Q356.93-11.84 358.21-12.74L358.21-12.74L358.21-12.74Q359.49-13.63 360.38-15.42L360.38-15.42L360.38-15.42Q361.22-17.09 362.62-17.09L362.62-17.09L376.45-17.09L376.45-17.09Q377.02-17.09 377.44-16.67L377.44-16.67L377.44-16.67Q377.86-16.26 377.86-15.68L377.86-15.68L377.86-15.68Q377.86-11.78 375.23-8.03L375.23-8.03L375.23-8.03Q372.61-4.29 367.26-1.82L367.26-1.82L367.26-1.82Q361.92 0.64 354.24 0.64L354.24 0.64L354.24 0.64Q347.39 0.64 342.05-1.44L342.05-1.44L342.05-1.44Q336.70-3.52 333.57-7.84L333.57-7.84L333.57-7.84Q330.43-12.16 330.43-18.62L330.43-18.62L330.43-26.18L330.43-26.18Q330.43-32.64 333.57-36.96L333.57-36.96L333.57-36.96Q336.70-41.28 342.05-43.36L342.05-43.36L342.05-43.36Q347.39-45.44 354.24-45.44L354.24-45.44L354.24-45.44Q361.92-45.44 367.26-42.98L367.26-42.98L367.26-42.98Q372.61-40.51 375.23-36.77L375.23-36.77L375.23-36.77Q377.86-33.02 377.86-29.12L377.86-29.12L377.86-29.12Q377.86-28.54 377.44-28.13L377.44-28.13L377.44-28.13Q377.02-27.71 376.45-27.71L376.45-27.71L362.62-27.71L362.62-27.71Q361.22-27.71 360.38-29.38L360.38-29.38L360.38-29.38Q359.49-31.17 358.21-32.06L358.21-32.06L358.21-32.06Q356.93-32.96 354.24-32.96L354.24-32.96L354.24-32.96Q351.23-32.96 349.47-31.55L349.47-31.55L349.47-31.55Q347.71-30.14 347.71-27.52L347.71-27.52L347.71-17.28ZM400.38-6.66L398.78-2.18L398.78-2.18Q397.95 0 395.90 0L395.90 0L383.81 0L383.81 0Q383.23 0 382.82-0.42L382.82-0.42L382.82-0.42Q382.40-0.83 382.40-1.41L382.40-1.41L382.46-1.79L396.42-42.69L396.42-42.69Q396.67-43.52 397.38-44.16L397.38-44.16L397.38-44.16Q398.08-44.80 399.30-44.80L399.30-44.80L417.09-44.80L417.09-44.80Q418.30-44.80 419.01-44.16L419.01-44.16L419.01-44.16Q419.71-43.52 419.97-42.69L419.97-42.69L433.92-1.79L433.98-1.41L433.98-1.41Q433.98-0.83 433.57-0.42L433.57-0.42L433.57-0.42Q433.15 0 432.58 0L432.58 0L420.48 0L420.48 0Q418.43 0 417.60-2.18L417.60-2.18L416.00-6.66L400.38-6.66ZM412.74-19.14L408.19-32.45L403.65-19.14L412.74-19.14ZM482.43-44.80L482.43-44.80Q483.14-44.80 483.65-44.29L483.65-44.29L483.65-44.29Q484.16-43.78 484.16-43.07L484.16-43.07L484.16-1.73L484.16-1.73Q484.16-1.02 483.65-0.51L483.65-0.51L483.65-0.51Q483.14 0 482.43 0L482.43 0L472.13 0L472.13 0Q470.59 0 469.57-1.34L469.57-1.34L455.62-19.14L455.62-1.73L455.62-1.73Q455.62-1.02 455.10-0.51L455.10-0.51L455.10-0.51Q454.59 0 453.89 0L453.89 0L441.98 0L441.98 0Q441.28 0 440.77-0.51L440.77-0.51L440.77-0.51Q440.26-1.02 440.26-1.73L440.26-1.73L440.26-43.07L440.26-43.07Q440.26-43.78 440.77-44.29L440.77-44.29L440.77-44.29Q441.28-44.80 441.98-44.80L441.98-44.80L452.35-44.80L452.35-44.80Q453.89-44.80 454.85-43.52L454.85-43.52L468.80-24.26L468.80-43.07L468.80-43.07Q468.80-43.78 469.31-44.29L469.31-44.29L469.31-44.29Q469.82-44.80 470.53-44.80L470.53-44.80L482.43-44.80Z" fill="#444"></path></g></g><style>text {
  font-size: 64px;
  font-family: Arial Black;
  dominant-baseline: central;
  text-anchor: middle;
}</style></svg>