<svg width="256.9800048828125px" height="88.425048828125px" xmlns="http://www.w3.org/2000/svg" viewBox="121.50999755859374 30.7874755859375 256.9800048828125 88.425048828125" style="background: rgba(0, 0, 0, 0);" preserveAspectRatio="xMidYMid"><defs><filter id="editing-jagged" x="-100%" y="-100%" width="300%" height="300%"><feTurbulence result="turb" baseFrequency="0.1" numOctaves="1" seed="1"></feTurbulence><feDisplacementMap in="SourceGraphic" in2="turb" scale="8"></feDisplacementMap></filter></defs><g filter="url(#editing-jagged)"><g transform="translate(163.52999687194824, 89.76000022888184)"><path d="M31.57-28.70L31.57-28.70Q32.02-28.70 32.35-28.37L32.35-28.37L32.35-28.37Q32.68-28.04 32.68-27.59L32.68-27.59L32.68-20.99L32.68-20.99Q32.68-20.54 32.35-20.21L32.35-20.21L32.35-20.21Q32.02-19.89 31.57-19.89L31.57-19.89L22.76-19.89L22.76-1.11L22.76-1.11Q22.76-0.66 22.43-0.33L22.43-0.33L22.43-0.33Q22.10 0 21.65 0L21.65 0L13.20 0L13.20 0Q12.75 0 12.42-0.33L12.42-0.33L12.42-0.33Q12.10-0.66 12.10-1.11L12.10-1.11L12.10-19.89L3.28-19.89L3.28-19.89Q2.83-19.89 2.50-20.21L2.50-20.21L2.50-20.21Q2.17-20.54 2.17-20.99L2.17-20.99L2.17-27.59L2.17-27.59Q2.17-28.04 2.50-28.37L2.50-28.37L2.50-28.37Q2.83-28.70 3.28-28.70L3.28-28.70L31.57-28.70ZM52.28 0.41L52.28 0.41Q45.39 0.41 41.35-2.58L41.35-2.58L41.35-2.58Q37.31-5.58 37.31-11.93L37.31-11.93L37.31-27.59L37.31-27.59Q37.31-28.04 37.64-28.37L37.64-28.37L37.64-28.37Q37.97-28.70 38.42-28.70L38.42-28.70L46.99-28.70L46.99-28.70Q47.44-28.70 47.77-28.37L47.77-28.37L47.77-28.37Q48.09-28.04 48.09-27.59L48.09-27.59L48.09-11.28L48.09-11.28Q48.09-9.59 49.22-8.69L49.22-8.69L49.22-8.69Q50.35-7.79 52.28-7.79L52.28-7.79L52.28-7.79Q54.20-7.79 55.33-8.69L55.33-8.69L55.33-8.69Q56.46-9.59 56.46-11.28L56.46-11.28L56.46-27.59L56.46-27.59Q56.46-28.04 56.79-28.37L56.79-28.37L56.79-28.37Q57.11-28.70 57.56-28.70L57.56-28.70L66.13-28.70L66.13-28.70Q66.58-28.70 66.91-28.37L66.91-28.37L66.91-28.37Q67.24-28.04 67.24-27.59L67.24-27.59L67.24-11.93L67.24-11.93Q67.24-5.58 63.20-2.58L63.20-2.58L63.20-2.58Q59.16 0.41 52.28 0.41L52.28 0.41ZM83.35-11.07L83.35-11.07Q83.35-9.39 84.48-8.49L84.48-8.49L84.48-8.49Q85.61-7.58 87.53-7.58L87.53-7.58L87.53-7.58Q89.26-7.58 90.08-8.16L90.08-8.16L90.08-8.16Q90.90-8.73 91.47-9.88L91.47-9.88L91.47-9.88Q92.00-10.95 92.91-10.95L92.91-10.95L101.76-10.95L101.76-10.95Q102.13-10.95 102.40-10.68L102.40-10.68L102.40-10.68Q102.66-10.41 102.66-10.04L102.66-10.04L102.66-10.04Q102.66-7.54 100.98-5.15L100.98-5.15L100.98-5.15Q99.30-2.75 95.88-1.17L95.88-1.17L95.88-1.17Q92.46 0.41 87.53 0.41L87.53 0.41L87.53 0.41Q83.15 0.41 79.72-0.92L79.72-0.92L79.72-0.92Q76.30-2.25 74.29-5.02L74.29-5.02L74.29-5.02Q72.28-7.79 72.28-11.93L72.28-11.93L72.28-16.77L72.28-16.77Q72.28-20.91 74.29-23.68L74.29-23.68L74.29-23.68Q76.30-26.45 79.72-27.78L79.72-27.78L79.72-27.78Q83.15-29.11 87.53-29.11L87.53-29.11L87.53-29.11Q92.46-29.11 95.88-27.53L95.88-27.53L95.88-27.53Q99.30-25.95 100.98-23.55L100.98-23.55L100.98-23.55Q102.66-21.16 102.66-18.66L102.66-18.66L102.66-18.66Q102.66-18.29 102.40-18.02L102.40-18.02L102.40-18.02Q102.13-17.75 101.76-17.75L101.76-17.75L92.91-17.75L92.91-17.75Q92.00-17.75 91.47-18.82L91.47-18.82L91.47-18.82Q90.90-19.97 90.08-20.54L90.08-20.54L90.08-20.54Q89.26-21.12 87.53-21.12L87.53-21.12L87.53-21.12Q85.61-21.12 84.48-20.21L84.48-20.21L84.48-20.21Q83.35-19.31 83.35-17.63L83.35-17.63L83.35-11.07ZM117.10-4.26L116.07-1.39L116.07-1.39Q115.54 0 114.23 0L114.23 0L106.48 0L106.48 0Q106.11 0 105.84-0.27L105.84-0.27L105.84-0.27Q105.58-0.53 105.58-0.90L105.58-0.90L105.62-1.15L114.55-27.35L114.55-27.35Q114.72-27.88 115.17-28.29L115.17-28.29L115.17-28.29Q115.62-28.70 116.40-28.70L116.40-28.70L127.80-28.70L127.80-28.70Q128.58-28.70 129.03-28.29L129.03-28.29L129.03-28.29Q129.48-27.88 129.64-27.35L129.64-27.35L138.58-1.15L138.62-0.90L138.62-0.90Q138.62-0.53 138.35-0.27L138.35-0.27L138.35-0.27Q138.09 0 137.72 0L137.72 0L129.97 0L129.97 0Q128.66 0 128.13-1.39L128.13-1.39L127.10-4.26L117.10-4.26ZM125.01-12.26L122.10-20.79L119.19-12.26L125.01-12.26ZM169.66-28.70L169.66-28.70Q170.11-28.70 170.44-28.37L170.44-28.37L170.44-28.37Q170.77-28.04 170.77-27.59L170.77-27.59L170.77-1.11L170.77-1.11Q170.77-0.66 170.44-0.33L170.44-0.33L170.44-0.33Q170.11 0 169.66 0L169.66 0L163.06 0L163.06 0Q162.07 0 161.42-0.86L161.42-0.86L152.48-12.26L152.48-1.11L152.48-1.11Q152.48-0.66 152.15-0.33L152.15-0.33L152.15-0.33Q151.82 0 151.37 0L151.37 0L143.75 0L143.75 0Q143.30 0 142.97-0.33L142.97-0.33L142.97-0.33Q142.64-0.66 142.64-1.11L142.64-1.11L142.64-27.59L142.64-27.59Q142.64-28.04 142.97-28.37L142.97-28.37L142.97-28.37Q143.30-28.70 143.75-28.70L143.75-28.70L150.39-28.70L150.39-28.70Q151.37-28.70 151.99-27.88L151.99-27.88L160.93-15.54L160.93-27.59L160.93-27.59Q160.93-28.04 161.25-28.37L161.25-28.37L161.25-28.37Q161.58-28.70 162.03-28.70L162.03-28.70L169.66-28.70Z" fill="#444"></path></g></g><style>text {
  font-size: 64px;
  font-family: Arial Black;
  dominant-baseline: central;
  text-anchor: middle;
}</style></svg>